<?xml version="1.0" encoding="utf-8"?>
<!-- Svg Vector Icons : http://www.onlinewebfonts.com/icon -->
<!DOCTYPE svg PUBLIC "-//W3C//DTD SVG 1.1//EN" "http://www.w3.org/Graphics/SVG/1.1/DTD/svg11.dtd">
<svg version="1.1" xmlns="http://www.w3.org/2000/svg" xmlns:xlink="http://www.w3.org/1999/xlink" x="0px" y="0px" viewBox="0 0 1000 1000" enable-background="new 0 0 1000 1000" xml:space="preserve">
<metadata> Svg Vector Icons : http://www.onlinewebfonts.com/icon </metadata>
<g><path d="M500,950.8L500,950.8c249,0,450.8-201.8,450.8-450.8C950.8,251,749,49.2,500,49.2C251,49.2,49.2,251,49.2,500C49.2,749,251,950.8,500,950.8L500,950.8z M500,990L500,990C229.4,990,10,770.6,10,500S229.4,10,500,10s490,219.4,490,490S770.6,990,500,990L500,990z M251.1,747.3l289.2-205.2l11.5,15.9l-335,237.8l-2.4,3.4l-15.6-11.9l3.6-5l-0.1-0.2l0.5-0.4l236.1-332.5l15.6,11.9L251.1,747.3z M795,206.3L556,555.8L444.3,444L795,206.3z"/></g>
</svg>