<?xml version="1.0" encoding="utf-8"?>
<!-- Svg Vector Icons : http://www.onlinewebfonts.com/icon -->
<!DOCTYPE svg PUBLIC "-//W3C//DTD SVG 1.1//EN" "http://www.w3.org/Graphics/SVG/1.1/DTD/svg11.dtd">
<svg version="1.1" xmlns="http://www.w3.org/2000/svg" xmlns:xlink="http://www.w3.org/1999/xlink" x="0px" y="0px" viewBox="0 0 1000 1000" enable-background="new 0 0 1000 1000" xml:space="preserve">
<metadata> Svg Vector Icons : http://www.onlinewebfonts.com/icon </metadata>
<g><path d="M695.5,695.5L401.1,536.8v319.8L695.5,695.5z M990,500v393.4c0,26.1-9.6,48.7-28.8,67.9S919.4,990,893.4,990H106.6c-26.1,0-48.7-9.6-67.9-28.8S10,919.4,10,893.4V500c0-26.1,9.6-49.1,28.8-69s41.8-29.9,67.9-29.9h786.7c26.1,0,48.7,10,67.9,29.9C980.4,450.9,990,473.9,990,500z M794.5,10v96.6H205.6V10H794.5z M893.4,304.5H106.7v-98.9h786.7V304.5z"/></g>
</svg>